inDegrees=yes
name=ik_S49_A02_T01
DataType=double
version=3
OpenSimVersion=4.3-2021-08-27-4bc7ad9
endheader
time	pelvis_tilt	pelvis_list	pelvis_rotation	pelvis_tx	pelvis_ty	pelvis_tz	hip_flexion_r	hip_adduction_r	hip_rotation_r	knee_angle_r	knee_angle_r_beta	ankle_angle_r	subtalar_angle_r	mtp_angle_r	hip_flexion_l	hip_adduction_l	hip_rotation_l	knee_angle_l	knee_angle_l_beta	ankle_angle_l	subtalar_angle_l	mtp_angle_l	lumbar_extension	lumbar_bending	lumbar_rotation	arm_flex_r	arm_add_r	arm_rot_r	elbow_flex_r	pro_sup_r	wrist_flex_r	wrist_dev_r	arm_flex_l	arm_add_l	arm_rot_l	elbow_flex_l	pro_sup_l	wrist_flex_l	wrist_dev_l
17.47999999999972	0.2705277963474744	1.140989979817661	-84.35238923531263	0	0.9399999999999999	0	12.37170004015388	-0.7615343786389496	-4.104580603585429	5.301684936172544	0.09253185803959631	0	0	0	0.2117411058100751	2.845874679829575	-5.220693115165833	1.586549831288309	0.02769051830294153	0	0	0	0	0	0	28.04783934535429	-28.04783934535429	4.08985262926381	72.73347764658334	85.91014760143939	0	0	28.04783934535429	-28.04783934535429	4.08985262926381	72.73347764658334	85.91014760127102	0	0
17.49999999999972	0.05062089376944911	1.147747978641066	-84.44210311352168	0	0.9399999999999999	0	12.0155090040887	-1.007541807357222	-3.206768424602191	7.927718209163445	0.1383647849202106	0	0	0	0.6730681579747573	2.764331984512047	-5.035202370086028	1.671693128579197	0.02917654917667191	0	0	0	0	0	0	28.05466914707314	-28.05466914707314	4.090578109314771	72.74341763176331	85.90942212142674	0	0	28.05466914707314	-28.05466914707314	4.090578109314771	72.74341763176331	85.90942212125842	0	0
17.51999999999972	-0.08565569130553001	1.186741091847648	-84.62676376410063	0	0.9399999999999999	0	11.56933235962498	-1.118643473633562	-2.606250661836294	10.54556886561108	0.1840548982007168	0	0	0	1.165670422256247	2.692575365154784	-4.849508418080298	1.75995975102528	0.03071709235797078	0	0	0	0	0	0	28.0613708478268	-28.0613708478268	4.091287578728878	72.75313640041244	85.90871265205004	0	0	28.0613708478268	-28.0613708478268	4.091287578728878	72.75313640041244	85.90871265188188	0	0
17.53999999999971	-0.1256191240896694	1.225368320458647	-85.32302439579851	0	0.9399999999999999	0	10.96144426347048	-1.077188104166038	-1.659421243044287	11.25413412961916	0.1964216950229206	0	0	0	1.639956219439459	2.719330109046378	-5.038187022111146	1.808581950575299	0.03156570982968032	0	0	0	0	0	0	28.06540727973992	-28.06540727973992	4.091715539681792	72.75899921211767	85.90828469111962	0	0	28.06540727973992	-28.06540727973992	4.091715539681792	72.75899921211767	85.90828469095163	0	0
17.55999999999971	-0.0773682380258309	1.311983437079006	-85.64357679862391	0	0.9399999999999999	0	10.41256212380725	-1.266351904098372	-1.209323497998065	15.12208627435188	0.2639301952580829	0	0	0	2.134517859058177	2.834409639535568	-4.963836320221961	1.89218272158574	0.03302481854101834	0	0	0	0	0	0	28.07223397301017	-28.07223397301017	4.092438221712565	72.76889860796486	85.90756200912686	0	0	28.07223397301017	-28.07223397301017	4.092438221712565	72.76889860796486	85.90756200895909	0	0
17.57999999999971	0.003511432587521372	1.369731081015183	-86.01585952100729	0	0.9399999999999999	0	8.943291837293794	-0.5553495391933511	-0.9229933089640883	16.30888419385297	0.2846437265091955	0	0	0	2.583700665984202	2.96918631880966	-4.679663396938846	1.854078188575649	0.03235976898005739	0	0	0	0	0	0	28.07854521162409	-28.07854521162409	4.093108578929006	72.77808266636909	85.90689165194578	0	0	28.07854521162409	-28.07854521162409	4.093108578929006	72.77808266636909	85.9068916517782	0	0
17.59999999999971	0.03970095318060412	1.39247342564363	-86.19702929984851	0	0.9399999999999999	0	8.148400570530558	-0.4141617005632375	-0.9813061449716786	19.36659648814421	0.3380108736232875	0	0	0	2.954767567623911	3.03850437206091	-4.289395636439188	1.799654316576925	0.0314098932219957	0	0	0	0	0	0	28.08565028083369	-28.08565028083369	4.093862436842518	72.78840989708469	85.90613779407201	0	0	28.08565028083369	-28.08565028083369	4.093862436842518	72.78840989708469	85.90613779390456	0	0
17.61999999999971	0.09758748190369711	1.455773336373465	-86.58728404417759	0	0.9399999999999999	0	7.155701342864057	-0.3015466874996112	-0.9588551589547715	20.68679979954793	0.3610527682030143	0	0	0	3.424854377754651	3.030655652275125	-4.713771624009063	1.97704438479325	0.03450593397270792	0	0	0	0	0	0	28.09174168843063	-28.09174168843063	4.094508602356967	72.79726158804863	85.90549162859165	0	0	28.09174168843063	-28.09174168843063	4.094508602356967	72.79726158804863	85.9054916284243	0	0
17.63999999999971	0.1166651983972743	1.501674074624261	-86.91382915630396	0	0.9399999999999999	0	5.810967877727234	-0.2116114516921559	-1.253372264939206	21.49089622077517	0.375086898256933	0	0	0	4.328503007187687	2.863026012166674	-4.642152551804747	2.4422883210289	0.04262597248495857	0	0	0	0	0	0	28.09859229595109	-28.09859229595109	4.095235848301774	72.80722413037661	85.90476438268513	0	0	28.09859229595109	-28.09859229595109	4.095235848301774	72.80722413037661	85.90476438251802	0	0
17.65999999999971	0.09693728677949813	1.495729883013677	-87.12456221339892	0	0.9399999999999999	0	4.2416469705248	-0.1964411637245219	-1.759851572874157	21.87749698604749	0.3818343545016647	0	0	0	4.367581000300786	2.801211678250009	-4.785548649726588	2.311044206783825	0.04033533056751843	0	0	0	0	0	0	28.10019074734803	-28.10019074734803	4.095404899480632	72.80953952726055	85.9045953315152	0	0	28.10019074734803	-28.10019074734803	4.095404899480632	72.80953952726055	85.90459533134816	0	0
17.67999999999971	0.03219167158934994	1.487544565930638	-87.23371782051929	0	0.9399999999999999	0	2.752764138315151	-0.2293882485960073	-2.115948427392889	22.27562433486108	0.3887829875806977	0	0	0	5.222897560176349	2.613686859107293	-5.155326844830605	2.59382268684985	0.0452707460984557	0	0	0	0	0	0	28.10407103876503	-28.10407103876503	4.095813958827743	72.81514114457967	85.90418627218966	0	0	28.10407103876503	-28.10407103876503	4.095813958827743	72.81514114457967	85.90418627202264	0	0
17.69999999999971	-0.04171837984927598	1.457949856858486	-87.289869748169	0	0.9399999999999999	0	1.303269105795005	-0.1480304083049772	-2.472219735757584	22.51457847607465	0.39295352410615	0	0	0	5.621828039886563	2.478797789776297	-5.132875531576874	2.902788221153127	0.05066321194723137	0	0	0	0	0	0	28.10707096139791	-28.10707096139791	4.096130970527726	72.81948274614612	85.90386926050638	0	0	28.10707096139791	-28.10707096139791	4.096130970527726	72.81948274614612	85.90386926033942	0	0
17.71999999999971	-0.1341564219885337	1.430643403729072	-87.3285756571525	0	0.9399999999999999	0	1.271929407542256	-0.1072115104438723	-2.471927817790658	23.92166475485291	0.4175118125304655	0	0	0	6.081640277240641	2.284770905619853	-5.043184259950644	3.139095844163744	0.05478755801632815	0	0	0	0	0	0	28.11296041039572	-28.11296041039572	4.09675123671846	72.82797599698075	85.90324899434823	0	0	28.11296041039572	-28.11296041039572	4.09675123671846	72.82797599698075	85.9032489941814	0	0
17.73999999999971	-0.1793582683765316	1.409698617585518	-87.33600251771271	0	0.9399999999999999	0	-0.04094075589456875	0.08304720964795945	-2.835027886794707	23.90270704841264	0.4171809381344562	0	0	0	6.450729187831454	2.087937650878873	-5.128100608339846	2.845033040552619	0.04965519388566855	0	0	0	0	0	0	28.11597639493469	-28.11597639493469	4.097069150919503	72.8323293141494	85.90293108016397	0	0	28.11597639493469	-28.11597639493469	4.097069150919503	72.8323293141494	85.90293107999719	0	0
17.75999999999971	-0.1671250734649253	1.44355040081932	-87.31025144960081	0	0.9399999999999999	0	-0.03564649992652935	0.02736561672763875	-2.90622745218368	24.72590373527551	0.431548430711722	0	0	0	6.824190140366202	1.987857728648991	-5.498318065170539	3.181211920635873	0.05552262221878853	0	0	0	0	0	0	28.11977146075205	-28.11977146075205	4.097471174063706	72.83783572942653	85.90252905704101	0	0	28.11977146075205	-28.11977146075205	4.097471174063706	72.83783572942653	85.90252905687429	0	0
17.77999999999971	-0.1663430735277668	1.439868066403918	-87.33194438662585	0	0.9399999999999999	0	-2.235816850762828	0.5689580332906001	-3.304359625645296	22.76971256168357	0.3974064539340908	0	0	0	6.81625370267699	1.987119552438545	-5.550186793507684	2.68275255237103	0.04682286505515607	0	0	0	0	0	0	28.12564555911969	-28.12564555911969	4.098093038051091	72.84635277393808	85.90190719308639	0	0	28.12564555911969	-28.12564555911969	4.098093038051091	72.84635277393808	85.90190719291977	0	0
